<svg width="31" height="21" viewBox="0 0 31 21" fill="none" xmlns="http://www.w3.org/2000/svg">
<path d="M7.48518 20.344C6.20039 20.344 5.0388 20.1109 4.00041 19.6447C2.97962 19.1785 2.17003 18.5072 1.57163 17.6307C0.973241 16.7542 0.665244 15.7193 0.647644 14.5258H4.6076C4.6604 15.3277 4.9244 15.9617 5.3996 16.4279C5.89239 16.8941 6.56119 17.1272 7.40598 17.1272C8.26837 17.1272 8.94596 16.9128 9.43876 16.4839C9.93155 16.0363 10.1779 15.4582 10.1779 14.7496C10.1779 14.1715 10.0108 13.696 9.67635 13.323C9.34196 12.9501 8.91956 12.661 8.40917 12.4559C7.91637 12.2321 7.22998 11.9897 6.34999 11.7286C5.1532 11.3556 4.17641 10.992 3.41962 10.6377C2.68042 10.2647 2.03803 9.71462 1.49244 8.98735C0.964441 8.24143 0.700444 7.25308 0.700444 6.02232C0.700444 4.86614 0.973241 3.85914 1.51884 3.00134C2.06443 2.14353 2.83002 1.49085 3.81561 1.04329C4.8012 0.577094 5.92759 0.343994 7.19478 0.343994C9.09556 0.343994 10.6355 0.838166 11.8147 1.82651C13.0115 2.79621 13.6715 4.15751 13.7947 5.91043H9.72915C9.69395 5.2391 9.42116 4.68898 8.91076 4.26008C8.41797 3.81253 7.75797 3.58875 6.93078 3.58875C6.20919 3.58875 5.62839 3.78455 5.1884 4.17616C4.766 4.56777 4.55481 5.13653 4.55481 5.88245C4.55481 6.4046 4.7132 6.84283 5.03 7.19714C5.3644 7.5328 5.76919 7.81252 6.24439 8.0363C6.73718 8.24143 7.42358 8.48385 8.30357 8.76357C9.50036 9.13653 10.4771 9.50949 11.2339 9.88245C11.9907 10.2554 12.6419 10.8149 13.1875 11.5608C13.7331 12.3067 14.0059 13.2857 14.0059 14.4978C14.0059 15.5421 13.7507 16.5118 13.2403 17.4069C12.7299 18.302 11.9819 19.02 10.9963 19.5608C10.0108 20.0829 8.84036 20.344 7.48518 20.344Z" fill="white"/>
<path d="M30.6476 6.66567C30.6476 7.70996 30.41 8.68898 29.9349 9.60273C29.4773 10.5165 28.7469 11.2531 27.7437 11.8125C26.7581 12.372 25.5085 12.6517 23.9949 12.6517H20.9061V20.1482H17.2102V0.623714H23.9949C25.4205 0.623714 26.6349 0.884786 27.6381 1.40693C28.6413 1.92908 29.3893 2.64702 29.8821 3.56078C30.3924 4.47453 30.6476 5.50949 30.6476 6.66567Z" fill="url(#paint0_linear_49_26)"/>
<path d="M28.1631 6.59924L21.3569 10.7628V2.43566L28.1631 6.59924Z" fill="white"/>
<path d="M0.74985 14.6258C0.782725 15.7592 1.08515 16.7408 1.65422 17.5743C2.24173 18.4348 3.03671 19.0946 4.04188 19.5537C5.0657 20.0133 6.2129 20.244 7.48518 20.244C8.82723 20.244 9.98065 19.9855 10.9489 19.4727C11.9195 18.94 12.6531 18.2348 13.1534 17.3574C13.6551 16.4776 13.9059 15.525 13.9059 14.4978C13.9059 13.3004 13.6365 12.344 13.1068 11.6198C12.5698 10.8856 11.9307 10.3373 11.1897 9.97215C10.4393 9.6023 9.46778 9.23113 8.27382 8.85905L8.27327 8.85888C7.3922 8.57881 6.70266 8.33538 6.20596 8.12862L6.20174 8.12687L6.20178 8.12677C5.71723 7.89859 5.30258 7.61244 4.95916 7.26772L4.95535 7.26389L4.95545 7.26379C4.6206 6.88929 4.45481 6.42657 4.45481 5.88245C4.45481 5.11737 4.67201 4.51855 5.12041 4.10283L5.1219 4.10145L5.12191 4.10146C5.58411 3.69009 6.19044 3.48875 6.93078 3.48875C7.77576 3.48875 8.46135 3.71757 8.97657 4.18476C9.48321 4.6111 9.7659 5.15486 9.82246 5.81043H13.6867C13.5463 4.13277 12.8996 2.83425 11.7518 1.90421L11.7505 1.90316L11.7505 1.90315C10.5933 0.9332 9.07778 0.443994 7.19478 0.443994C5.93999 0.443994 4.82859 0.674762 3.85837 1.13369L3.85696 1.13436L3.85696 1.13435C2.88784 1.57442 2.13771 2.21464 1.60321 3.055C1.06917 3.89465 0.800444 4.88247 0.800444 6.02232C0.800444 7.23882 1.06127 8.20452 1.57326 8.92846C2.11003 9.64365 2.74013 10.1826 3.46335 10.5478C4.21424 10.8992 5.18572 11.261 6.37909 11.6329C6.37931 11.633 6.37952 11.6331 6.37974 11.6331L6.34999 11.7286C7.22998 11.9897 7.91637 12.2321 8.40917 12.4559L0.74985 14.6258ZM0.74985 14.6258H4.51497C4.58296 15.4036 4.85231 16.0311 5.32957 16.4993L5.33087 16.5006C5.84652 16.9884 6.5422 17.2272 7.40598 17.2272C8.28465 17.2272 8.98826 17.0085 9.50441 16.5593L9.50442 16.5593L9.50599 16.5579C10.0211 16.09 10.278 15.4844 10.278 14.7496C10.278 14.1509 10.1042 13.6504 9.75081 13.2563C9.40566 12.8713 8.97079 12.5741 8.44851 12.3639L0.74985 14.6258ZM29.8461 9.55659L29.8454 9.55796C29.3979 10.4516 28.6829 11.1743 27.695 11.7252L27.6943 11.7256C26.728 12.2741 25.4968 12.5517 23.9949 12.5517H20.9061H20.8061V12.6517V20.0482H17.3102V0.723714H23.9949C25.4085 0.723714 26.6062 0.982595 27.5919 1.49563C28.579 2.0094 29.3116 2.7137 29.794 3.60825L29.7948 3.60954C30.296 4.50687 30.5476 5.52474 30.5476 6.66567C30.5476 7.69413 30.3138 8.6573 29.8461 9.55659ZM28.2152 6.68455L28.3547 6.59924L28.2152 6.51394L21.4091 2.35036L21.2569 2.25726V2.43566V10.7628V10.9412L21.4091 10.8481L28.2152 6.68455ZM27.9714 6.59924L21.4569 10.5844V2.61406L27.9714 6.59924Z" stroke="white" stroke-width="0.2"/>
<defs>
<linearGradient id="paint0_linear_49_26" x1="15.6476" y1="0.343994" x2="15.6476" y2="20.344" gradientUnits="userSpaceOnUse">
<stop stop-color="#F600A5"/>
<stop offset="1" stop-color="#9200F6"/>
</linearGradient>
</defs>
</svg>
