<svg width="54" height="54" viewBox="0 0 54 54" fill="none" xmlns="http://www.w3.org/2000/svg">
<path d="M26.3303 39L25.6039 35.4112H20.0102L19.2474 39H13L18.9932 15H26.7299L32.723 39H26.3303ZM20.9909 30.7757H24.6232L22.8434 22.1402L20.9909 30.7757Z" fill="white"/>
<path d="M33.0454 34.3271H41V39H26.689V15H40.6731V19.6729H33.0454V24.5701H39.6198V29.243H33.0454V34.3271Z" fill="white"/>
<path d="M24.538 53.8541C12.2372 52.9534 2.22535 43.8119 0 31.927H4.08295C6.36588 42.2254 15.5525 49.927 26.5379 49.927C39.2405 49.927 49.5379 39.6296 49.5379 26.927C49.5379 14.8983 40.304 5.02631 28.5379 4.0128V0C41.5203 0.950564 51.9531 11.0806 53.3732 23.9271L53.5198 27.9271C53.018 41.7087 42.187 52.8547 28.538 53.8541L24.538 53.8541Z" fill="white"/>
</svg>
